<?xml version="1.0" standalone="no"?>
<!DOCTYPE svg PUBLIC "-//W3C//DTD SVG 20010904//EN"
 "http://www.w3.org/TR/2001/REC-SVG-20010904/DTD/svg10.dtd">
<svg version="1.0" xmlns="http://www.w3.org/2000/svg"
 width="700.000000pt" height="700.000000pt" viewBox="0 0 700.000000 700.000000"
 preserveAspectRatio="xMidYMid meet">
<metadata>
Created by potrace 1.14, written by Peter Selinger 2001-2017
</metadata>
<g transform="translate(0.000000,700.000000) scale(0.100000,-0.100000)"
fill="#000000" stroke="none">
<path d="M1469 6996 c-2 -2 -24 -6 -49 -9 -109 -14 -140 -20 -225 -44 -179
-49 -354 -130 -497 -229 -284 -197 -499 -482 -608 -803 -21 -64 -41 -127 -44
-141 -3 -14 -9 -50 -15 -80 -6 -30 -13 -68 -17 -85 -3 -16 -7 -107 -9 -202 -2
-182 11 -290 54 -447 138 -502 519 -915 1006 -1088 55 -20 114 -39 130 -44 17
-4 35 -8 40 -10 6 -1 60 -12 120 -22 89 -16 144 -20 285 -17 96 1 184 5 195 8
11 2 40 8 65 12 187 29 423 123 595 235 392 256 648 659 722 1135 9 62 11 353
2 413 -22 149 -40 228 -81 342 -125 349 -346 626 -663 832 -73 47 -256 138
-278 138 -7 0 -18 5 -25 12 -7 7 -12 9 -12 6 0 -4 -15 -1 -33 7 -43 18 -187
54 -240 61 -23 3 -49 8 -57 11 -16 6 -356 14 -361 9z"/>
<path d="M5249 6996 c-2 -2 -29 -6 -59 -10 -30 -3 -80 -10 -110 -16 -30 -6
-66 -14 -80 -16 -14 -3 -72 -21 -130 -40 -353 -118 -661 -363 -860 -683 -104
-167 -169 -337 -216 -560 -19 -92 -26 -376 -12 -491 30 -237 127 -495 263
-696 65 -96 83 -118 180 -222 234 -252 604 -436 960 -480 93 -11 372 -7 455 7
573 95 1053 488 1256 1028 40 107 79 264 91 361 10 82 9 335 -1 417 -11 95
-59 288 -86 350 -5 11 -20 47 -34 80 -138 335 -429 641 -767 807 -85 42 -235
100 -292 113 -163 37 -236 47 -388 50 -92 2 -168 3 -170 1z"/>
<path d="M1458 3225 c-1 -1 -26 -5 -55 -9 -118 -14 -370 -82 -397 -107 -6 -5
-17 -9 -25 -9 -8 0 -64 -27 -125 -60 -438 -239 -728 -633 -827 -1125 -18 -87
-23 -146 -23 -280 -1 -229 16 -344 80 -535 173 -517 602 -914 1132 -1050 43
-11 96 -22 118 -25 21 -3 55 -9 74 -12 82 -14 462 -5 489 12 4 2 22 6 41 9
109 17 302 86 420 149 457 246 756 654 847 1157 25 139 24 436 -2 560 -3 14
-8 41 -12 60 -4 19 -8 37 -8 40 -1 3 -5 19 -9 35 -10 40 -18 63 -60 175 -136
359 -452 698 -807 864 -87 41 -254 100 -311 111 -12 3 -45 9 -73 15 -113 22
-177 28 -316 28 -81 0 -149 -1 -151 -3z"/>
<path d="M5207 3224 c-2 -3 -20 -6 -38 -8 -82 -9 -263 -54 -349 -86 -106 -41
-276 -131 -370 -198 -121 -86 -296 -261 -382 -382 -58 -83 -150 -251 -188
-345 -40 -99 -84 -271 -97 -377 -20 -163 -7 -427 29 -578 114 -480 434 -878
880 -1093 76 -36 253 -100 313 -112 161 -33 205 -37 355 -39 215 -1 286 7 475
58 186 51 394 160 564 297 210 168 372 384 476 635 33 78 80 229 90 283 10 59
15 87 21 111 9 41 12 320 4 390 -16 136 -22 168 -51 267 -79 278 -205 497
-404 699 -55 55 -131 124 -170 152 -38 29 -75 55 -80 60 -35 29 -176 103 -310
162 -49 22 -189 62 -285 82 -80 16 -149 22 -292 24 -102 1 -188 0 -191 -2z"/>
</g>
</svg>
