<svg xmlns="http://www.w3.org/2000/svg"><style>:root svg:not(:target){display:none}</style><svg viewBox="0 0 22 22" fill="none" id="mail"><path d="M3.67 3.67h14.66c1.01 0 1.84.82 1.84 1.83v11c0 1-.83 1.83-1.84 1.83h-14.66a1.84 1.84 0 0 1-1.84-1.83v-11c0-1 .83-1.83 1.84-1.83Z" stroke="#888" stroke-width="1.5" stroke-linecap="round" stroke-linejoin="round"></path><path d="m20.17 5.5-9.17 6.42-9.17-6.42" stroke="#888" stroke-width="1.5" stroke-linecap="round" stroke-linejoin="round"></path></svg><svg viewBox="0 0 22 22" fill="none" id="phone"><path d="M19.17 15.01v2.45a1.63 1.63 0 0 1-1.78 1.63 16.15 16.15 0 0 1-7.05-2.5 15.92 15.92 0 0 1-4.9-4.9 16.16 16.16 0 0 1-2.5-7.08 1.63 1.63 0 0 1 1.63-1.78h2.44a1.63 1.63 0 0 1 1.64 1.4c.1.8.3 1.56.57 2.3a1.63 1.63 0 0 1-.37 1.72l-1.04 1.04a13.06 13.06 0 0 0 4.9 4.9l1.04-1.04a1.63 1.63 0 0 1 1.72-.37c.74.28 1.51.47 2.3.58a1.63 1.63 0 0 1 1.4 1.65Z" stroke="#888" stroke-width="1.5" stroke-linecap="round" stroke-linejoin="round"></path></svg><svg viewBox="0 0 16 14" fill="none" id="tg"><path d="m6.39 8.99-.25 3.49c.35 0 .5-.15.7-.34l1.66-1.59 3.44 2.53c.64.35 1.08.16 1.25-.58l2.27-10.61c.2-.94-.34-1.3-.96-1.07l-13.3 5.1c-.91.34-.9.85-.16 1.08l3.4 1.06 7.9-4.95c.38-.24.72-.1.44.14l-6.4 5.74Z" fill="#fff"></path></svg><svg viewBox="0 0 17 14" fill="none" id="tweeter"><path fill-rule="evenodd" clip-rule="evenodd" d="M16.47 2.28a6.4 6.4 0 0 1-1.88.52c.67-.4 1.2-1.05 1.44-1.81-.64.37-1.34.65-2.09.8a3.26 3.26 0 0 0-5.66 2.23c0 .26.03.51.09.75a9.32 9.32 0 0 1-6.75-3.42 3.27 3.27 0 0 0 1.01 4.37 3.27 3.27 0 0 1-1.48-.4v.03c0 1.6 1.12 2.91 2.63 3.21a3.25 3.25 0 0 1-1.49.06 3.28 3.28 0 0 0 3.06 2.28 6.59 6.59 0 0 1-4.85 1.35 9.27 9.27 0 0 0 5.02 1.47c6.03 0 9.32-4.99 9.32-9.31l-.01-.43a6.67 6.67 0 0 0 1.64-1.7Z" fill="#fff"></path></svg><svg viewBox="0 0 20 20" fill="none" id="user"><path d="M16.67 17.5v-1.67a3.33 3.33 0 0 0-3.34-3.33h-6.66a3.33 3.33 0 0 0-3.34 3.33v1.67m6.67-8.33a3.33 3.33 0 1 0 0-6.67 3.33 3.33 0 0 0 0 6.67Z" stroke="#888" stroke-width="2" stroke-linecap="round" stroke-linejoin="round"></path></svg><svg viewBox="0 0 12 8" fill="none" id="vector"><path d="m1 1.5 5 5 5-5" stroke="#0050EF" stroke-width="2" stroke-linecap="round" stroke-linejoin="round"></path></svg><svg viewBox="0 0 18 11" fill="none" id="vk"><path d="M17.66 9.67a9.58 9.58 0 0 0-1.8-2.28l-.02-.02-.01-.01v-.01h-.02c-.39-.4-.63-.67-.74-.8-.18-.26-.23-.53-.12-.8.07-.2.34-.62.82-1.27l.59-.84c1.05-1.5 1.5-2.45 1.37-2.87l-.06-.1a.72.72 0 0 0-.28-.16 1.34 1.34 0 0 0-.58-.02l-2.63.02c-.04-.02-.1-.02-.18 0l-.12.03-.04.03-.04.03a.42.42 0 0 0-.1.1.68.68 0 0 0-.1.17 16.48 16.48 0 0 1-1.59 3.25 5.02 5.02 0 0 1-.82.99c-.1.09-.18.12-.23.1-.06 0-.11-.02-.16-.03a.64.64 0 0 1-.2-.24.74.74 0 0 1-.1-.38 4.48 4.48 0 0 1-.04-.87l.01-.4a26.08 26.08 0 0 1 .04-1.5 14.73 14.73 0 0 0-.02-.98 1.6 1.6 0 0 0-.1-.32.52.52 0 0 0-.19-.23.83.83 0 0 0-.3-.13 5.67 5.67 0 0 0-1.23-.13 5.6 5.6 0 0 0-2.18.24c-.13.07-.24.17-.34.29-.11.14-.13.22-.05.23.36.06.62.2.77.42l.06.12a4.85 4.85 0 0 1 .21 1.16 8.15 8.15 0 0 1-.21 2.47l-.11.22a.16.16 0 0 1-.05.05.64.64 0 0 1-.24.05c-.09 0-.19-.05-.31-.14-.12-.1-.25-.22-.38-.38a5.04 5.04 0 0 1-.44-.67 8.58 8.58 0 0 1-.51-1.01l-.15-.28a25.1 25.1 0 0 1-.8-1.81.64.64 0 0 0-.2-.31l-.05-.03a.92.92 0 0 0-.36-.15l-2.5.02c-.25 0-.42.06-.52.19l-.03.05a.34.34 0 0 0-.03.16c0 .07.02.16.05.26a33.3 33.3 0 0 0 3.28 6.2 21.47 21.47 0 0 0 .9 1.18l.23.23a10.9 10.9 0 0 0 1.58 1.2 4.9 4.9 0 0 0 2.52.69h1.05a.7.7 0 0 0 .49-.22l.03-.05c.03-.03.05-.1.07-.18.02-.08.03-.17.03-.26a3.44 3.44 0 0 1 .22-1.27 1.25 1.25 0 0 1 .35-.43.57.57 0 0 1 .07-.03c.15-.06.32 0 .51.15.2.15.39.34.56.56.17.23.38.48.62.76.25.28.46.49.64.63l.18.11c.13.08.28.15.48.22.2.06.36.08.5.05l2.34-.04a1 1 0 0 0 .54-.12c.13-.08.2-.17.23-.27a1.3 1.3 0 0 0-.06-.6Z" fill="#fff"></path></svg><svg viewBox="0 0 18 13" fill="none" id="youtube"><path d="M17.39 2.58c-.2-.71-.8-1.28-1.54-1.47-1.37-.36-6.85-.36-6.85-.36s-5.48 0-6.85.34c-.73.2-1.34.78-1.54 1.5-.36 1.3-.36 4.02-.36 4.02s0 2.73.36 4.03c.2.71.8 1.28 1.54 1.47 1.39.36 6.85.36 6.85.36s5.48 0 6.85-.34c.75-.2 1.34-.76 1.54-1.48.36-1.31.36-4.03.36-4.03s.01-2.73-.36-4.04Zm-10.13 6.54v-5.02l4.55 2.51-4.55 2.5Z" fill="#fff"></path></svg></svg>