<svg viewBox="0 0 22 22" fill="none" xmlns="http://www.w3.org/2000/svg"><path d="M19.17 15.01v2.45a1.63 1.63 0 0 1-1.78 1.63 16.15 16.15 0 0 1-7.05-2.5 15.92 15.92 0 0 1-4.9-4.9 16.16 16.16 0 0 1-2.5-7.08 1.63 1.63 0 0 1 1.63-1.78h2.44a1.63 1.63 0 0 1 1.64 1.4c.1.8.3 1.56.57 2.3a1.63 1.63 0 0 1-.37 1.72l-1.04 1.04a13.06 13.06 0 0 0 4.9 4.9l1.04-1.04a1.63 1.63 0 0 1 1.72-.37c.74.28 1.51.47 2.3.58a1.63 1.63 0 0 1 1.4 1.65Z" stroke="#888" stroke-width="1.5" stroke-linecap="round" stroke-linejoin="round"/></svg>