<svg viewBox="0 0 17 14" fill="none" xmlns="http://www.w3.org/2000/svg"><path fill-rule="evenodd" clip-rule="evenodd" d="M16.47 2.28a6.4 6.4 0 0 1-1.88.52c.67-.4 1.2-1.05 1.44-1.81-.64.37-1.34.65-2.09.8a3.26 3.26 0 0 0-5.66 2.23c0 .26.03.51.09.75a9.32 9.32 0 0 1-6.75-3.42 3.27 3.27 0 0 0 1.01 4.37 3.27 3.27 0 0 1-1.48-.4v.03c0 1.6 1.12 2.91 2.63 3.21a3.25 3.25 0 0 1-1.49.06 3.28 3.28 0 0 0 3.06 2.28 6.59 6.59 0 0 1-4.85 1.35 9.27 9.27 0 0 0 5.02 1.47c6.03 0 9.32-4.99 9.32-9.31l-.01-.43a6.67 6.67 0 0 0 1.64-1.7Z" fill="#fff"/></svg>