<svg viewBox="0 0 18 11" fill="none" xmlns="http://www.w3.org/2000/svg"><path d="M17.66 9.67a9.58 9.58 0 0 0-1.8-2.28l-.02-.02-.01-.01v-.01h-.02c-.39-.4-.63-.67-.74-.8-.18-.26-.23-.53-.12-.8.07-.2.34-.62.82-1.27l.59-.84c1.05-1.5 1.5-2.45 1.37-2.87l-.06-.1a.72.72 0 0 0-.28-.16 1.34 1.34 0 0 0-.58-.02l-2.63.02c-.04-.02-.1-.02-.18 0l-.12.03-.04.03-.04.03a.42.42 0 0 0-.1.1.68.68 0 0 0-.1.17 16.48 16.48 0 0 1-1.59 3.25 5.02 5.02 0 0 1-.82.99c-.1.09-.18.12-.23.1-.06 0-.11-.02-.16-.03a.64.64 0 0 1-.2-.24.74.74 0 0 1-.1-.38 4.48 4.48 0 0 1-.04-.87l.01-.4a26.08 26.08 0 0 1 .04-1.5 14.73 14.73 0 0 0-.02-.98 1.6 1.6 0 0 0-.1-.32.52.52 0 0 0-.19-.23.83.83 0 0 0-.3-.13 5.67 5.67 0 0 0-1.23-.13 5.6 5.6 0 0 0-2.18.24c-.13.07-.24.17-.34.29-.11.14-.13.22-.05.23.36.06.62.2.77.42l.06.12a4.85 4.85 0 0 1 .21 1.16 8.15 8.15 0 0 1-.21 2.47l-.11.22a.16.16 0 0 1-.05.05.64.64 0 0 1-.24.05c-.09 0-.19-.05-.31-.14-.12-.1-.25-.22-.38-.38a5.04 5.04 0 0 1-.44-.67 8.58 8.58 0 0 1-.51-1.01l-.15-.28a25.1 25.1 0 0 1-.8-1.81.64.64 0 0 0-.2-.31l-.05-.03a.92.92 0 0 0-.36-.15l-2.5.02c-.25 0-.42.06-.52.19l-.03.05a.34.34 0 0 0-.03.16c0 .07.02.16.05.26a33.3 33.3 0 0 0 3.28 6.2 21.47 21.47 0 0 0 .9 1.18l.23.23a10.9 10.9 0 0 0 1.58 1.2 4.9 4.9 0 0 0 2.52.69h1.05a.7.7 0 0 0 .49-.22l.03-.05c.03-.03.05-.1.07-.18.02-.08.03-.17.03-.26a3.44 3.44 0 0 1 .22-1.27 1.25 1.25 0 0 1 .35-.43.57.57 0 0 1 .07-.03c.15-.06.32 0 .51.15.2.15.39.34.56.56.17.23.38.48.62.76.25.28.46.49.64.63l.18.11c.13.08.28.15.48.22.2.06.36.08.5.05l2.34-.04a1 1 0 0 0 .54-.12c.13-.08.2-.17.23-.27a1.3 1.3 0 0 0-.06-.6Z" fill="#fff"/></svg>