<svg viewBox="0 0 194 48" fill="none" xmlns="http://www.w3.org/2000/svg"><path d="M79.04 37.6c-2.05 0-4.03-.3-5.96-.88a12.4 12.4 0 0 1-4.5-2.31l1.7-3.83c1.09.86 2.41 1.56 3.98 2.12 1.6.53 3.19.8 4.78.8 1.97 0 3.44-.32 4.4-.95.98-.63 1.48-1.47 1.48-2.5 0-.76-.28-1.38-.84-1.86-.53-.5-1.21-.9-2.04-1.18-.84-.28-1.98-.6-3.42-.95a40.9 40.9 0 0 1-4.93-1.44 8.35 8.35 0 0 1-3.22-2.24 6.21 6.21 0 0 1-1.33-4.17c0-1.46.4-2.8 1.18-3.98a8.17 8.17 0 0 1 3.6-2.88 14.71 14.71 0 0 1 5.92-1.06c1.61 0 3.2.2 4.77.6 1.57.4 2.92.99 4.06 1.75l-1.55 3.83a15.34 15.34 0 0 0-3.64-1.56 13.62 13.62 0 0 0-3.68-.53c-1.95 0-3.4.33-4.36.99a3.05 3.05 0 0 0-1.4 2.61c0 .76.26 1.38.79 1.86a6.1 6.1 0 0 0 2.09 1.14c.83.28 1.97.6 3.4.95 1.98.45 3.6.93 4.86 1.44a7.99 7.99 0 0 1 3.23 2.24 5.9 5.9 0 0 1 1.36 4.1c0 1.46-.4 2.79-1.21 3.98a8 8 0 0 1-3.6 2.84c-1.62.7-3.6 1.06-5.92 1.06Zm26.39-20.87c1.97 0 3.73.43 5.27 1.3a9.26 9.26 0 0 1 3.68 3.63 10.84 10.84 0 0 1 1.33 5.43c0 2.05-.44 3.87-1.33 5.46a9.26 9.26 0 0 1-3.68 3.64c-1.54.86-3.3 1.29-5.27 1.29-2.73 0-4.89-.91-6.48-2.73v9.82h-4.74v-27.6h4.5v2.65a7.36 7.36 0 0 1 2.9-2.17 9.94 9.94 0 0 1 3.82-.72Zm-.53 16.7c1.75 0 3.17-.6 4.29-1.75a6.28 6.28 0 0 0 1.7-4.6c0-1.89-.56-3.42-1.7-4.58a5.67 5.67 0 0 0-4.29-1.75c-1.14 0-2.16.27-3.07.8a5.49 5.49 0 0 0-2.16 2.2 6.8 6.8 0 0 0-.8 3.34c0 1.26.27 2.37.8 3.33a5.68 5.68 0 0 0 5.23 3Zm22.78-16.7c2.99 0 5.26.72 6.83 2.17 1.6 1.41 2.39 3.56 2.39 6.44v11.87h-4.47v-2.46a5.62 5.62 0 0 1-2.5 2.05 9.81 9.81 0 0 1-3.88.68 9.73 9.73 0 0 1-3.98-.76 6.48 6.48 0 0 1-2.65-2.16 5.66 5.66 0 0 1-.91-3.15c0-1.82.67-3.27 2-4.36 1.37-1.11 3.5-1.67 6.42-1.67h5.23v-.3c0-1.42-.43-2.5-1.29-3.26-.83-.76-2.09-1.14-3.76-1.14-1.13 0-2.26.17-3.37.53a8.28 8.28 0 0 0-2.77 1.48l-1.86-3.45a11.5 11.5 0 0 1 3.83-1.86c1.5-.43 3.08-.65 4.74-.65Zm-.64 17.3c1.19 0 2.24-.27 3.15-.8a4.5 4.5 0 0 0 1.97-2.35v-2.35h-4.9c-2.72 0-4.09.9-4.09 2.7 0 .85.34 1.53 1.02 2.04.69.5 1.64.76 2.85.76Zm25.42 3.45c-2.1 0-3.98-.44-5.65-1.33a9.8 9.8 0 0 1-3.9-3.68 10.38 10.38 0 0 1-1.4-5.38 9.85 9.85 0 0 1 5.27-9.03 11.95 11.95 0 0 1 5.68-1.33c2 0 3.74.4 5.24 1.22a7.85 7.85 0 0 1 3.4 3.49l-3.63 2.12a5.6 5.6 0 0 0-2.2-2.09 5.73 5.73 0 0 0-2.85-.72 6 6 0 0 0-4.4 1.75 6.13 6.13 0 0 0-1.74 4.59c0 1.92.57 3.46 1.7 4.62a6.08 6.08 0 0 0 4.44 1.71c1.04 0 1.99-.23 2.85-.68a5.9 5.9 0 0 0 2.2-2.13l3.64 2.13a8.3 8.3 0 0 1-3.45 3.53c-1.5.8-3.23 1.2-5.2 1.2Zm31.49-10.28c0 .33-.02.8-.08 1.4h-15.89a5.6 5.6 0 0 0 2.17 3.57 7.3 7.3 0 0 0 4.4 1.29 7.4 7.4 0 0 0 5.5-2.2l2.53 2.92a8.57 8.57 0 0 1-3.45 2.46c-1.39.56-2.95.84-4.7.84a12.5 12.5 0 0 1-5.88-1.33c-1.7-.88-3-2.11-3.94-3.68a10.66 10.66 0 0 1-1.37-5.38c0-1.98.44-3.74 1.33-5.31a9.65 9.65 0 0 1 3.75-3.72 10.9 10.9 0 0 1 5.39-1.33c1.97 0 3.73.45 5.27 1.33a8.95 8.95 0 0 1 3.64 3.68 10.92 10.92 0 0 1 1.33 5.46Zm-10.24-6.67c-1.52 0-2.8.45-3.87 1.36a5.62 5.62 0 0 0-1.9 3.57h11.5a5.6 5.6 0 0 0-1.86-3.57 5.65 5.65 0 0 0-3.87-1.36Zm16.31 16.95c-.86 0-1.6-.3-2.2-.87-.6-.61-.9-1.37-.9-2.28 0-.93.28-1.7.86-2.27a3.1 3.1 0 0 1 2.24-.88c.89 0 1.62.3 2.2.88.6.58.91 1.34.91 2.27 0 .91-.3 1.67-.9 2.28a3.1 3.1 0 0 1-2.2.87Z" fill="#fff"/><circle cx="11.077" cy="11.077" r="11.077" fill="#fff"/><circle cx="36.923" cy="11.077" r="11.077" fill="#fff"/><circle cx="11.077" cy="36.923" r="11.077" fill="#fff"/><circle cx="36.923" cy="36.923" r="11.077" fill="#fff"/></svg>