<svg viewBox="0 0 121 30" fill="none" xmlns="http://www.w3.org/2000/svg"><path d="M49.4 23.5c-1.28 0-2.52-.19-3.72-.55a7.75 7.75 0 0 1-2.82-1.45l1.06-2.39a9.36 9.36 0 0 0 5.48 1.83c1.23 0 2.15-.2 2.75-.6.62-.4.92-.91.92-1.56 0-.48-.17-.86-.52-1.16a3.37 3.37 0 0 0-1.28-.74c-.52-.17-1.23-.37-2.13-.6-1.27-.3-2.3-.6-3.08-.9a5.22 5.22 0 0 1-2.02-1.39 3.88 3.88 0 0 1-.83-2.6c0-.92.25-1.75.74-2.5a5.1 5.1 0 0 1 2.25-1.8 9.2 9.2 0 0 1 3.7-.66c1 0 2 .12 2.98.38.98.25 1.83.61 2.54 1.09l-.97 2.4a9.59 9.59 0 0 0-4.58-1.31c-1.21 0-2.12.2-2.72.61a1.9 1.9 0 0 0-.88 1.64c0 .47.17.86.5 1.16.35.3.78.54 1.3.71.52.18 1.23.37 2.14.6 1.23.28 2.24.58 3.03.9a5 5 0 0 1 2.01 1.4c.57.63.86 1.48.86 2.55 0 .92-.26 1.75-.76 2.5a5 5 0 0 1-2.25 1.77 9.21 9.21 0 0 1-3.7.67Zm16.5-13.04a6.7 6.7 0 0 1 3.29.8 5.8 5.8 0 0 1 2.3 2.28c.55.98.83 2.1.83 3.39a6.9 6.9 0 0 1-.83 3.41 5.79 5.79 0 0 1-2.3 2.28c-.96.54-2.06.8-3.3.8a5.1 5.1 0 0 1-4.05-1.7v6.14h-2.96v-17.26h2.82v1.66a4.6 4.6 0 0 1 1.8-1.35c.73-.3 1.53-.45 2.4-.45Zm-.34 10.43c1.1 0 1.99-.37 2.68-1.1a3.93 3.93 0 0 0 1.07-2.86c0-1.19-.36-2.14-1.07-2.87a3.54 3.54 0 0 0-2.68-1.09c-.7 0-1.35.17-1.92.5-.57.31-1.02.77-1.35 1.37-.33.6-.5 1.3-.5 2.09 0 .79.17 1.48.5 2.09.33.6.78 1.06 1.35 1.4.57.31 1.21.47 1.92.47Zm14.24-10.43c1.87 0 3.29.45 4.27 1.35 1 .88 1.5 2.23 1.5 4.03v7.42h-2.8v-1.54c-.37.55-.89.98-1.57 1.28a6.2 6.2 0 0 1-2.42.42c-.94 0-1.77-.15-2.49-.47a4.05 4.05 0 0 1-1.65-1.35 3.54 3.54 0 0 1-.57-1.97c0-1.14.42-2.04 1.25-2.72.86-.7 2.2-1.05 4-1.05h3.28v-.19c0-.88-.27-1.56-.8-2.04-.53-.47-1.31-.7-2.35-.7-.71 0-1.42.1-2.11.33-.68.22-1.26.52-1.73.92l-1.16-2.16a7.2 7.2 0 0 1 2.39-1.16c.93-.27 1.92-.4 2.96-.4Zm-.4 10.8c.74 0 1.4-.16 1.97-.5.58-.34 1-.83 1.23-1.46v-1.47h-3.06c-1.7 0-2.56.56-2.56 1.68 0 .54.22.97.64 1.28.43.32 1.02.48 1.78.48Zm15.89 2.16a7.42 7.42 0 0 1-3.53-.83 6.12 6.12 0 0 1-3.32-5.66 6.16 6.16 0 0 1 3.3-5.64 7.47 7.47 0 0 1 3.55-.83 6.7 6.7 0 0 1 3.27.76 4.9 4.9 0 0 1 2.13 2.18l-2.27 1.32a3.5 3.5 0 0 0-1.38-1.3 3.58 3.58 0 0 0-1.78-.45 3.73 3.73 0 0 0-3.84 3.96 4 4 0 0 0 1.07 2.9 3.8 3.8 0 0 0 2.77 1.06c.65 0 1.25-.14 1.78-.43.56-.3 1.01-.74 1.38-1.33l2.27 1.33a5.18 5.18 0 0 1-2.15 2.2 6.7 6.7 0 0 1-3.25.76Zm19.68-6.42c0 .2-.02.5-.05.88h-9.93a3.5 3.5 0 0 0 1.35 2.23c.74.53 1.66.8 2.75.8 1.4 0 2.54-.46 3.44-1.37l1.58 1.82a5.35 5.35 0 0 1-2.15 1.54c-.87.35-1.85.52-2.94.52-1.4 0-2.62-.27-3.67-.83a6.07 6.07 0 0 1-3.32-5.66c0-1.23.27-2.34.83-3.32.56-1 1.35-1.77 2.34-2.32a6.8 6.8 0 0 1 3.37-.83 6.5 6.5 0 0 1 3.3.83 5.6 5.6 0 0 1 2.27 2.3c.55.98.83 2.11.83 3.41Zm-6.4-4.17a3.51 3.51 0 0 0-3.6 3.08h7.18a3.5 3.5 0 0 0-1.16-2.23 3.53 3.53 0 0 0-2.42-.85Zm10.19 10.59c-.53 0-1-.18-1.37-.54a1.93 1.93 0 0 1-.57-1.42c0-.59.18-1.06.54-1.43.38-.36.85-.54 1.4-.54a1.88 1.88 0 0 1 1.94 1.97c0 .57-.18 1.04-.56 1.42-.38.36-.84.54-1.38.54Z" fill="#000"/><circle cx="6.923" cy="6.923" r="6.923" fill="#0050EF"/><circle cx="23.077" cy="6.923" r="6.923" fill="#0050EF"/><circle cx="6.923" cy="23.077" r="6.923" fill="#0050EF"/><circle cx="23.077" cy="23.077" r="6.923" fill="#0050EF"/></svg>